<?xml version="1.0" encoding="utf-8"?>
<!-- Generator: Adobe Illustrator 23.1.0, SVG Export Plug-In . SVG Version: 6.00 Build 0)  -->
<svg version="1.1" id="Layer_1" xmlns="http://www.w3.org/2000/svg" xmlns:xlink="http://www.w3.org/1999/xlink" x="0px" y="0px"
	 viewBox="0 0 964 194" enable-background="new 0 0 964 194" xml:space="preserve">
<g>
	<path fill="#1A7235" d="M68.5,74.6c-11,0-19.7,3.3-26,10c-6.3,6.7-9.5,17-9.5,31.1v43.1H0V42.2h33.1v23.5c3.3-8,7.9-14.4,13.7-19.1
		c5.8-4.8,13.6-7,23.5-6.5v34.6H68.5z"/>
	<path fill="#1A7235" d="M173,140.2c-2.3,4.7-5.4,8.6-9.5,11.6c-4.1,3-8.8,5.3-14.2,6.8c-5.4,1.5-11.3,2.3-17.5,2.3
		c-8.3,0-16.7-1.4-25.3-4.2c-8.6-2.8-16.9-7.3-24.7-13.4l14.1-21.7c6.4,4.6,12.7,8.1,19,10.4c6.3,2.3,12.2,3.5,17.7,3.5
		c4.8,0,8.3-0.8,10.5-2.4c2.2-1.6,3.4-3.7,3.4-6.3v-0.4c0-1.7-0.7-3.3-2-4.6c-1.3-1.3-3.1-2.4-5.3-3.4c-2.2-0.9-4.8-1.8-7.7-2.7
		c-2.9-0.9-5.9-1.8-9.1-2.8c-4.1-1.2-8.2-2.6-12.3-4.2c-4.1-1.7-7.9-3.8-11.2-6.5c-3.3-2.7-6.1-6-8.2-9.9c-2.1-3.9-3.2-8.7-3.2-14.4
		v-0.4c0-5.9,1.1-11.2,3.4-15.8c2.2-4.6,5.3-8.4,9.1-11.6c3.8-3.2,8.3-5.6,13.5-7.2c5.1-1.6,10.7-2.4,16.6-2.4
		c7.4,0,14.9,1.2,22.5,3.6c7.6,2.4,14.6,5.7,21,9.9l-12.6,22.8c-5.8-3.3-11.5-6-17-7.9c-5.5-2-10.4-2.9-14.6-2.9
		c-4.1,0-7.1,0.8-9.1,2.3c-2,1.5-3,3.4-3,5.8v0.4c0,1.6,0.7,3,2,4.2c1.3,1.2,3,2.4,5.2,3.5c2.2,1.1,4.7,2.1,7.5,3.2c2.8,1,5.8,2,9,3
		c4.1,1.3,8.2,2.9,12.4,4.7c4.2,1.8,8,4,11.3,6.6c3.3,2.6,6.1,5.8,8.3,9.6c2.2,3.8,3.3,8.3,3.3,13.7v0.4
		C176.4,129.8,175.3,135.5,173,140.2z"/>
	<path fill="#1A7235" d="M198.8,158.8V124h35v34.8H198.8z"/>
	<path fill="#87000E" d="M375.5,160.6c-2.7,7.8-6.7,14.1-12.2,19c-5.4,4.9-12.2,8.6-20.3,10.9c-8.1,2.3-17.6,3.5-28.5,3.5
		c-9.6,0-18.7-1.1-27.4-3.2c-8.7-2.1-16.7-5.1-24.1-9l11.3-24.8c6.1,3.3,12.2,5.9,18.4,7.8c6.2,1.9,13.2,2.8,21,2.8
		c11.3,0,19.7-2.7,25.1-8c5.4-5.4,8.2-13.3,8.2-23.7v-5.7c-4.9,5.9-10.3,10.6-16.1,13.9c-5.8,3.3-13.1,5-22,5
		c-6.8,0-13.3-1.2-19.6-3.6c-6.2-2.4-11.7-5.9-16.5-10.5c-4.8-4.6-8.6-10.3-11.4-17.1c-2.8-6.7-4.2-14.5-4.2-23.2v-0.4
		c0-8.7,1.4-16.4,4.3-23.2c2.9-6.7,6.7-12.4,11.5-17.1c4.8-4.6,10.3-8.2,16.5-10.5c6.2-2.4,12.7-3.6,19.4-3.6c9,0,16.4,1.7,22.2,5
		c5.8,3.3,10.9,7.5,15.4,12.4V42.2h33.1v90.3C379.5,143.5,378.2,152.9,375.5,160.6z M346.9,94.4c0-3.9-0.7-7.5-2.2-10.9
		c-1.5-3.3-3.4-6.2-6-8.6c-2.5-2.4-5.5-4.2-9-5.5c-3.5-1.3-7.3-2-11.3-2c-4.1,0-7.8,0.7-11.2,2c-3.4,1.3-6.4,3.2-8.9,5.5
		c-2.5,2.4-4.5,5.3-6,8.6c-1.5,3.3-2.2,7-2.2,10.9v0.4c0,8.1,2.7,14.6,8,19.6c5.4,4.9,12.1,7.4,20.2,7.4c4.1,0,7.8-0.7,11.3-2
		c3.5-1.3,6.5-3.2,9-5.5c2.5-2.4,4.5-5.3,6-8.6c1.4-3.3,2.2-7,2.2-10.9V94.4z"/>
	<path fill="#87000E" d="M524.8,124.3c-3.2,7.3-7.6,13.7-13.3,19.2c-5.7,5.5-12.3,9.9-20,13.1c-7.7,3.2-16.1,4.8-25.2,4.8
		c-9,0-17.3-1.6-25-4.7c-7.7-3.1-14.3-7.4-19.9-12.8c-5.6-5.4-10-11.8-13.2-19.1c-3.2-7.3-4.8-15.2-4.8-23.6v-0.4
		c0-8.4,1.6-16.3,4.8-23.6c3.2-7.3,7.6-13.7,13.3-19.2c5.7-5.5,12.3-9.9,20-13c7.7-3.2,16.1-4.8,25.2-4.8c9,0,17.3,1.6,25,4.7
		c7.7,3.1,14.3,7.4,19.9,12.8c5.6,5.4,10,11.8,13.2,19.1c3.2,7.3,4.8,15.2,4.8,23.6v0.4C529.6,109.1,528,117,524.8,124.3z
		 M497,100.7c0-4.4-0.7-8.4-2.2-12.3c-1.5-3.8-3.6-7.2-6.3-10.2c-2.8-3-6-5.3-9.8-7.1c-3.8-1.7-7.9-2.6-12.4-2.6
		c-4.8,0-9,0.8-12.7,2.5c-3.7,1.7-6.9,4-9.5,6.8c-2.6,2.9-4.6,6.3-6,10.1c-1.4,3.8-2.1,7.9-2.1,12.3v0.4c0,4.3,0.7,8.4,2.2,12.3
		c1.4,3.8,3.6,7.3,6.3,10.2c2.8,3,6,5.3,9.7,7.1c3.7,1.7,7.9,2.6,12.5,2.6c4.8,0,9-0.8,12.7-2.5c3.7-1.7,6.9-3.9,9.5-6.9
		c2.6-2.9,4.6-6.3,6-10.1c1.4-3.8,2.1-7.9,2.1-12.3V100.7z"/>
	<path fill="#87000E" d="M619,159.6h-30L543.1,42.2h35l26.1,78.1l26.3-78.1h34.4L619,159.6z"/>
	<path fill="#87000E" d="M682.7,158.8V124h35v34.8H682.7z"/>
	<path fill="#F3B500" d="M864.2,126.5c-3,7.5-6.9,13.8-11.7,18.9c-4.9,5.2-10.5,9-16.9,11.6c-6.4,2.6-13,3.9-20,3.9
		c-8.8,0-16.1-1.7-21.9-5.2c-5.7-3.5-10.5-7.5-14.5-12.1v15.1h-33.1V0h33.1v58.8c4.1-5.5,9-10,14.7-13.5c5.7-3.5,12.9-5.3,21.6-5.3
		c6.8,0,13.4,1.3,19.8,3.9c6.4,2.6,12,6.5,17,11.6c4.9,5.1,8.9,11.5,11.9,18.9c3,7.5,4.5,16.1,4.5,25.8v0.4
		C868.6,110.4,867.2,119,864.2,126.5z M835.6,100.3c0-4.8-0.8-9.2-2.3-13.2c-1.5-4-3.6-7.4-6.2-10.3c-2.6-2.8-5.6-5-9-6.6
		c-3.4-1.5-7.1-2.3-11-2.3c-3.9,0-7.6,0.8-11,2.3c-3.4,1.5-6.4,3.7-8.9,6.6c-2.5,2.8-4.6,6.3-6.1,10.3c-1.5,4-2.3,8.4-2.3,13.2v0.4
		c0,4.8,0.8,9.2,2.3,13.3c1.5,4,3.6,7.4,6.1,10.3c2.5,2.8,5.5,5,8.9,6.6c3.4,1.5,7.1,2.3,11,2.3c3.9,0,7.6-0.8,11-2.3
		c3.4-1.5,6.4-3.7,9-6.6c2.6-2.8,4.7-6.2,6.2-10.2s2.3-8.4,2.3-13.4V100.3z"/>
	<path fill="#F3B500" d="M961.5,74.6c-11,0-19.7,3.3-26,10c-6.3,6.7-9.5,17-9.5,31.1v43.1H893V42.2h33.1v23.5
		c3.3-8,7.9-14.4,13.7-19.1c5.8-4.8,13.6-7,23.5-6.5v34.6H961.5z"/>
</g>
</svg>
